{
    "asset" : {
        "copyright" : "hph",
        "generator" : "Khronos glTF Blender I/O v1.8.19",
        "version" : "2.0"
    },
    "extensionsUsed" : [
        "KHR_materials_clearcoat"
    ],
    "scene" : 0,
    "scenes" : [
        {
            "name" : "Scene",
            "nodes" : [
                0
            ]
        }
    ],
    "nodes" : [
        {
            "mesh" : 0,
            "name" : "bottle"
        }
    ],
    "materials" : [
        {
            "doubleSided" : true,
            "extensions" : {
                "KHR_materials_clearcoat" : {
                    "clearcoatFactor" : 0.03863636404275894,
                    "clearcoatRoughnessFactor" : 0.029999999329447746
                }
            },
            "name" : "Material.001",
            "pbrMetallicRoughness" : {
                "baseColorTexture" : {
                    "index" : 0
                },
                "metallicFactor" : 0,
                "roughnessFactor" : 0.35227274894714355
            }
        }
    ],
    "meshes" : [
        {
            "name" : "bottle",
            "primitives" : [
                {
                    "attributes" : {
                        "POSITION" : 0,
                        "NORMAL" : 1,
                        "TEXCOORD_0" : 2
                    },
                    "indices" : 3,
                    "material" : 0
                }
            ]
        }
    ],
    "textures" : [
        {
            "sampler" : 0,
            "source" : 0
        }
    ],
    "images" : [
        {
            "bufferView" : 4,
            "mimeType" : "image/png",
            "name" : "bottle"
        }
    ],
    "accessors" : [
        {
            "bufferView" : 0,
            "componentType" : 5126,
            "count" : 11578,
            "max" : [
                4.062796115875244,
                7.955697536468506,
                4.062796115875244
            ],
            "min" : [
                -4.062796592712402,
                -3.9928104877471924,
                -4.062796592712402
            ],
            "type" : "VEC3"
        },
        {
            "bufferView" : 1,
            "componentType" : 5126,
            "count" : 11578,
            "type" : "VEC3"
        },
        {
            "bufferView" : 2,
            "componentType" : 5126,
            "count" : 11578,
            "type" : "VEC2"
        },
        {
            "bufferView" : 3,
            "componentType" : 5123,
            "count" : 11580,
            "type" : "SCALAR"
        }
    ],
    "bufferViews" : [
        {
            "buffer" : 0,
            "byteLength" : 138936,
            "byteOffset" : 0
        },
        {
            "buffer" : 0,
            "byteLength" : 138936,
            "byteOffset" : 138936
        },
        {
            "buffer" : 0,
            "byteLength" : 92624,
            "byteOffset" : 277872
        },
        {
            "buffer" : 0,
            "byteLength" : 23160,
            "byteOffset" : 370496
        },
        {
            "buffer" : 0,
            "byteLength" : 187118,
            "byteOffset" : 393656
        }
    ],
    "samplers" : [
        {
            "magFilter" : 9729,
            "minFilter" : 9987
        }
    ],
    "buffers" : [
        {
            "byteLength" : 580776,
            "uri" : "data:application/octet-stream;base64,"
        }
    ]
}
